<?xml version="1.0" encoding="UTF-8"?>
<svg version="1.1" xmlns="http://www.w3.org/2000/svg" width="512" height="512">
<path d="M0 0 C4.4353191 3.62116464 8.68465136 7.40245609 12.8515625 11.328125 C13.44195312 11.86566406 14.03234375 12.40320313 14.640625 12.95703125 C47.06756079 43.6166222 66.35894357 92.04007294 68.13671875 136.09765625 C68.87888698 167.54968571 61.68393374 197.47600797 41.8515625 222.328125 C41.14386719 223.22015625 40.43617188 224.1121875 39.70703125 225.03125 C22.7628516 245.02475326 -4.98814547 259.94300787 -31.1484375 262.328125 C-51.2485707 263.67336537 -69.94447892 262.03102913 -85.87597656 248.48876953 C-96.48266197 239.04862347 -102.28531198 227.43464678 -104.1484375 213.328125 C-104.28979848 210.85158934 -104.36846305 208.37101072 -104.3984375 205.890625 C-104.42421875 204.63378906 -104.45 203.37695312 -104.4765625 202.08203125 C-103.98694028 189.77923562 -100.07084435 178.54725837 -95.5234375 167.265625 C-94.52360772 164.75679286 -93.53388274 162.2444199 -92.546875 159.73046875 C-92.11036621 158.64241943 -91.67385742 157.55437012 -91.22412109 156.43334961 C-90.16924846 153.38820094 -89.57775734 150.51628887 -89.1484375 147.328125 C-105.3072272 155.54116397 -115.88749206 164.91467468 -121.92790318 182.61179352 C-124.73028142 192.32249664 -124.56152879 201.7918028 -124.51733398 211.80273438 C-124.51980587 213.74873058 -124.5236482 215.69472546 -124.52874756 217.64071655 C-124.53704396 221.80832887 -124.53631388 225.97580435 -124.52856255 230.14341736 C-124.51693106 236.73210928 -124.52918017 243.32062683 -124.54518127 249.90930176 C-124.58128208 266.26207454 -124.58759942 282.61484233 -124.58508301 298.96765137 C-124.58337316 311.70225875 -124.59042968 324.43672281 -124.62506157 337.17128992 C-124.64187545 343.7234618 -124.64004547 350.27528396 -124.62423885 356.82745457 C-124.61845636 360.89427847 -124.62915458 364.9609351 -124.64448547 369.02772903 C-124.64822179 370.91597538 -124.64507468 372.80424948 -124.63461494 374.69247055 C-124.62130682 377.26574288 -124.6323987 379.83778861 -124.64964294 382.41101074 C-124.63983617 383.1615817 -124.63002939 383.91215266 -124.61992544 384.6854682 C-124.6678645 388.13336727 -124.90277691 390.00247087 -127.00602818 392.79059601 C-129.82360041 394.81266479 -131.63574672 394.84444834 -135.0859375 394.859375 C-136.22804688 394.86453125 -137.37015625 394.8696875 -138.546875 394.875 C-139.73539062 394.85953125 -140.92390625 394.8440625 -142.1484375 394.828125 C-143.33695312 394.84359375 -144.52546875 394.8590625 -145.75 394.875 C-146.89210938 394.86984375 -148.03421875 394.8646875 -149.2109375 394.859375 C-150.25378906 394.85486328 -151.29664063 394.85035156 -152.37109375 394.84570312 C-155.97590034 394.17392131 -156.94518381 393.24889918 -159.1484375 390.328125 C-159.53925249 387.55450512 -159.68509228 385.17860801 -159.64964294 382.4066925 C-159.65517734 381.6026425 -159.66071174 380.7985925 -159.66641384 379.97017735 C-159.68004243 377.27187872 -159.66503872 374.57450161 -159.65014648 371.8762207 C-159.65392925 369.9426433 -159.65942894 368.0090686 -159.66651917 366.07550049 C-159.68050865 360.81638449 -159.66927402 355.55759447 -159.65280795 350.29849648 C-159.63895717 344.78511057 -159.64541855 339.2717436 -159.64894104 333.75834656 C-159.65164609 324.48492187 -159.63815235 315.21162636 -159.61499023 305.93823242 C-159.58848058 295.25136945 -159.58659983 284.56472389 -159.5983786 273.87783939 C-159.60920846 263.57503274 -159.60292206 253.27230392 -159.58882332 242.9695034 C-159.58309821 238.59873784 -159.58311891 234.22802989 -159.58788872 229.85726357 C-159.59270685 224.68863947 -159.58235922 219.52024907 -159.56093407 214.35166931 C-159.55542745 212.4672849 -159.55484355 210.58287775 -159.55988693 208.69849205 C-159.62707383 179.96246692 -152.43665893 154.82416713 -131.7421875 133.89453125 C-124.16812392 126.78785451 -111.09013477 115.328125 -100.1484375 115.328125 C-100.5609375 114.68488281 -100.9734375 114.04164063 -101.3984375 113.37890625 C-103.32324749 110.36709419 -105.23623738 107.34795803 -107.1484375 104.328125 C-107.83164062 103.25949219 -108.51484375 102.19085938 -109.21875 101.08984375 C-122.9340514 79.31745464 -129.98941103 55.85266137 -124.25390625 30.1640625 C-119.10514022 12.29802633 -109.23086645 -4.17757672 -92.59765625 -13.3984375 C-91.78941406 -13.81867187 -90.98117187 -14.23890625 -90.1484375 -14.671875 C-89.45363281 -15.05085938 -88.75882812 -15.42984375 -88.04296875 -15.8203125 C-59.04173137 -30.29372552 -23.98146562 -18.60303665 0 0 Z " fill="#EE524F" transform="translate(420.1484375,69.671875)"/>
<path d="M0 0 C15.35920944 12.44450798 24.1565277 30.2873097 26.3671875 49.91796875 C28.0567648 78.2183885 16.12277233 101.25053336 0.3671875 123.91796875 C1.388125 124.06105469 1.388125 124.06105469 2.4296875 124.20703125 C20.94203455 128.68741312 37.095402 145.44717581 46.65039062 161.03320312 C57.66191561 179.85935875 59.82902012 199.50808672 59.77124023 220.85253906 C59.77695812 222.78779999 59.7839278 224.72305756 59.79203796 226.65830994 C59.80981109 231.85793599 59.80883326 237.0573919 59.80309558 242.25703907 C59.7999859 246.60924274 59.80611462 250.96141455 59.81213433 255.31361365 C59.82612069 265.57352385 59.82466268 275.83335064 59.81323242 286.09326172 C59.80170849 296.6710334 59.81591176 307.2485528 59.8426289 317.82629132 C59.86476173 326.93068894 59.87143016 336.03500719 59.86555248 345.13942981 C59.86218179 350.56812528 59.86460786 355.99665836 59.88180351 361.42533112 C59.89723596 366.51779586 59.89335841 371.60988379 59.87449837 376.70233345 C59.87080474 378.57081339 59.87394341 380.43932108 59.88438416 382.3077755 C59.89754046 384.85635772 59.88609585 387.40368182 59.86839294 389.95220947 C59.88280045 391.06274433 59.88280045 391.06274433 59.89749902 392.19571424 C59.84603548 395.79134555 59.43919842 397.80329279 57.50944614 400.87638474 C54.7236692 403.53124516 53.23702522 403.54952225 49.4296875 403.546875 C48.28757813 403.54880859 47.14546875 403.55074219 45.96875 403.55273438 C44.78023437 403.52888672 43.59171875 403.50503906 42.3671875 403.48046875 C41.17867187 403.49142578 39.99015625 403.50238281 38.765625 403.51367188 C30.09404074 403.44026682 30.09404074 403.44026682 27.2243576 401.37818623 C24.68560384 398.01506598 24.81839751 395.06910655 24.87512207 391.02104187 C24.87044308 390.21966429 24.86576409 389.41828671 24.86094332 388.59262496 C24.84999841 385.90346521 24.86751258 383.21523875 24.88476562 380.52612305 C24.88257996 378.59915388 24.87858354 376.67218605 24.87290955 374.745224 C24.86433526 370.59163728 24.86814228 366.43830878 24.8813324 362.28473473 C24.90166419 355.7062421 24.8916914 349.12800979 24.8770752 342.54951477 C24.84802054 327.3828403 24.8587425 312.21624169 24.86977386 297.04955292 C24.87946404 283.17802881 24.88061642 269.30664102 24.84989309 255.43513995 C24.83657617 248.90775375 24.84240105 242.38075923 24.86325836 235.85339677 C24.87230273 231.7718432 24.86471699 227.69043743 24.85284615 223.60889626 C24.85073149 221.73010878 24.85534096 219.85129842 24.8675518 217.97254944 C24.96719298 201.71097864 23.10128274 187.51581671 13.3671875 173.91796875 C12.635 173.18964844 11.9028125 172.46132812 11.1484375 171.7109375 C9.3671875 169.91796875 9.3671875 169.91796875 9.3671875 167.91796875 C8.78453125 167.64726562 8.201875 167.3765625 7.6015625 167.09765625 C5.37801757 165.92368672 3.57977163 164.60817014 1.6171875 163.04296875 C-2.26433221 160.06616416 -6.20148917 157.97536887 -10.6328125 155.91796875 C-9.09792842 164.12165952 -6.26362093 171.52622447 -3.1328125 179.23046875 C4.61076332 198.57081629 7.89042918 217.95244276 0.3671875 237.91796875 C-6.56419449 253.01976216 -17.94040044 262.13593386 -33.0234375 268.3046875 C-50.16240477 273.78070283 -69.6355837 272.15684064 -86.6328125 266.91796875 C-87.6522998 266.60448486 -87.6522998 266.60448486 -88.69238281 266.28466797 C-103.4586027 261.57091772 -116.98114539 254.1579151 -128.6328125 243.91796875 C-129.45007813 243.24378906 -130.26734375 242.56960938 -131.109375 241.875 C-153.68795099 222.68670554 -164.71904925 193.49102137 -167.43432617 164.56445312 C-171.03703631 116.52831799 -154.23955755 69.00653827 -123.54296875 32.1328125 C-122.59744141 31.03646484 -122.59744141 31.03646484 -121.6328125 29.91796875 C-120.95089844 29.11488281 -120.26898438 28.31179687 -119.56640625 27.484375 C-90.79743494 -5.50473163 -40.14092703 -30.07363383 0 0 Z " fill="#EE524F" transform="translate(191.6328125,61.08203125)"/>
<path d="M0 0 C15.35920944 12.44450798 24.1565277 30.2873097 26.3671875 49.91796875 C28.0567648 78.2183885 16.12277233 101.25053336 0.3671875 123.91796875 C1.388125 124.06105469 1.388125 124.06105469 2.4296875 124.20703125 C20.94203455 128.68741312 37.095402 145.44717581 46.65039062 161.03320312 C57.66191561 179.85935875 59.82902012 199.50808672 59.77124023 220.85253906 C59.77695812 222.78779999 59.7839278 224.72305756 59.79203796 226.65830994 C59.80981109 231.85793599 59.80883326 237.0573919 59.80309558 242.25703907 C59.7999859 246.60924274 59.80611462 250.96141455 59.81213433 255.31361365 C59.82612069 265.57352385 59.82466268 275.83335064 59.81323242 286.09326172 C59.80170849 296.6710334 59.81591176 307.2485528 59.8426289 317.82629132 C59.86476173 326.93068894 59.87143016 336.03500719 59.86555248 345.13942981 C59.86218179 350.56812528 59.86460786 355.99665836 59.88180351 361.42533112 C59.89723596 366.51779586 59.89335841 371.60988379 59.87449837 376.70233345 C59.87080474 378.57081339 59.87394341 380.43932108 59.88438416 382.3077755 C59.89754046 384.85635772 59.88609585 387.40368182 59.86839294 389.95220947 C59.88280045 391.06274433 59.88280045 391.06274433 59.89749902 392.19571424 C59.84603548 395.79134555 59.43919842 397.80329279 57.50944614 400.87638474 C54.7236692 403.53124516 53.23702522 403.54952225 49.4296875 403.546875 C48.28757813 403.54880859 47.14546875 403.55074219 45.96875 403.55273438 C44.78023437 403.52888672 43.59171875 403.50503906 42.3671875 403.48046875 C41.17867187 403.49142578 39.99015625 403.50238281 38.765625 403.51367188 C30.09404074 403.44026682 30.09404074 403.44026682 27.2243576 401.37818623 C24.68560384 398.01506598 24.81839751 395.06910655 24.87512207 391.02104187 C24.87044308 390.21966429 24.86576409 389.41828671 24.86094332 388.59262496 C24.84999841 385.90346521 24.86751258 383.21523875 24.88476562 380.52612305 C24.88257996 378.59915388 24.87858354 376.67218605 24.87290955 374.745224 C24.86433526 370.59163728 24.86814228 366.43830878 24.8813324 362.28473473 C24.90166419 355.7062421 24.8916914 349.12800979 24.8770752 342.54951477 C24.84802054 327.3828403 24.8587425 312.21624169 24.86977386 297.04955292 C24.87946404 283.17802881 24.88061642 269.30664102 24.84989309 255.43513995 C24.83657617 248.90775375 24.84240105 242.38075923 24.86325836 235.85339677 C24.87230273 231.7718432 24.86471699 227.69043743 24.85284615 223.60889626 C24.85073149 221.73010878 24.85534096 219.85129842 24.8675518 217.97254944 C24.96719298 201.71097864 23.10128274 187.51581671 13.3671875 173.91796875 C12.635 173.18964844 11.9028125 172.46132812 11.1484375 171.7109375 C9.3671875 169.91796875 9.3671875 169.91796875 9.3671875 167.91796875 C8.78453125 167.64726562 8.201875 167.3765625 7.6015625 167.09765625 C5.37801757 165.92368672 3.57977163 164.60817014 1.6171875 163.04296875 C-2.26433221 160.06616416 -6.20148917 157.97536887 -10.6328125 155.91796875 C-9.09792842 164.12165952 -6.26362093 171.52622447 -3.1328125 179.23046875 C4.61076332 198.57081629 7.89042918 217.95244276 0.3671875 237.91796875 C-6.56419449 253.01976216 -17.94040044 262.13593386 -33.0234375 268.3046875 C-50.16240477 273.78070283 -69.6355837 272.15684064 -86.6328125 266.91796875 C-87.6522998 266.60448486 -87.6522998 266.60448486 -88.69238281 266.28466797 C-103.4586027 261.57091772 -116.98114539 254.1579151 -128.6328125 243.91796875 C-129.45007813 243.24378906 -130.26734375 242.56960938 -131.109375 241.875 C-153.68795099 222.68670554 -164.71904925 193.49102137 -167.43432617 164.56445312 C-171.03703631 116.52831799 -154.23955755 69.00653827 -123.54296875 32.1328125 C-122.59744141 31.03646484 -122.59744141 31.03646484 -121.6328125 29.91796875 C-120.95089844 29.11488281 -120.26898438 28.31179687 -119.56640625 27.484375 C-90.79743494 -5.50473163 -40.14092703 -30.07363383 0 0 Z M-96.6328125 22.91796875 C-97.468125 23.624375 -98.3034375 24.33078125 -99.1640625 25.05859375 C-123.61685613 46.03969446 -141.77508799 78.9087047 -149.6328125 109.91796875 C-150.17442602 111.75131779 -150.71609005 113.5846519 -151.2578125 115.41796875 C-158.82604303 143.76303009 -156.66118538 177.45892169 -143.6328125 203.91796875 C-143.05917969 205.09230469 -142.48554688 206.26664063 -141.89453125 207.4765625 C-137.19125977 216.58371602 -130.90848882 223.76505695 -123.6328125 230.91796875 C-122.8696875 231.67980469 -122.1065625 232.44164062 -121.3203125 233.2265625 C-103.88712867 249.66631122 -80.26302994 258.30935085 -56.5703125 258.41796875 C-55.01908691 258.42739502 -55.01908691 258.42739502 -53.43652344 258.43701172 C-40.36053881 258.21971155 -29.17163724 253.77823403 -19.48828125 244.9453125 C-9.50929302 234.04195484 -7.85214637 221.28592213 -8.46679688 207.09472656 C-9.24510458 196.88973906 -13.59010639 187.25463834 -17.1953125 177.79296875 C-28.5841873 147.89889798 -28.5841873 147.89889798 -23.90917969 134.90698242 C-21.60407119 129.99710131 -18.494833 125.97434658 -15.0078125 121.85546875 C3.06237267 99.82454307 15.5634303 76.15008305 13.3671875 46.91796875 C10.8262358 32.51414012 2.76865465 17.87145004 -9.078125 9.109375 C-16.89084602 4.19887166 -25.3126956 0.29257152 -34.6328125 -0.08203125 C-35.78523438 -0.14519531 -36.93765625 -0.20835938 -38.125 -0.2734375 C-60.48648124 -1.13789182 -80.2937033 7.958135 -96.6328125 22.91796875 Z " fill="#010000" transform="translate(191.6328125,61.08203125)"/>
<path d="M0 0 C4.4353191 3.62116464 8.68465136 7.40245609 12.8515625 11.328125 C13.44195312 11.86566406 14.03234375 12.40320313 14.640625 12.95703125 C47.06756079 43.6166222 66.35894357 92.04007294 68.13671875 136.09765625 C68.87888698 167.54968571 61.68393374 197.47600797 41.8515625 222.328125 C41.14386719 223.22015625 40.43617188 224.1121875 39.70703125 225.03125 C22.7628516 245.02475326 -4.98814547 259.94300787 -31.1484375 262.328125 C-51.2485707 263.67336537 -69.94447892 262.03102913 -85.87597656 248.48876953 C-96.48266197 239.04862347 -102.28531198 227.43464678 -104.1484375 213.328125 C-104.28979848 210.85158934 -104.36846305 208.37101072 -104.3984375 205.890625 C-104.42421875 204.63378906 -104.45 203.37695312 -104.4765625 202.08203125 C-103.98694028 189.77923562 -100.07084435 178.54725837 -95.5234375 167.265625 C-94.52360772 164.75679286 -93.53388274 162.2444199 -92.546875 159.73046875 C-92.11036621 158.64241943 -91.67385742 157.55437012 -91.22412109 156.43334961 C-90.16924846 153.38820094 -89.57775734 150.51628887 -89.1484375 147.328125 C-105.3072272 155.54116397 -115.88749206 164.91467468 -121.92790318 182.61179352 C-124.73028142 192.32249664 -124.56152879 201.7918028 -124.51733398 211.80273438 C-124.51980587 213.74873058 -124.5236482 215.69472546 -124.52874756 217.64071655 C-124.53704396 221.80832887 -124.53631388 225.97580435 -124.52856255 230.14341736 C-124.51693106 236.73210928 -124.52918017 243.32062683 -124.54518127 249.90930176 C-124.58128208 266.26207454 -124.58759942 282.61484233 -124.58508301 298.96765137 C-124.58337316 311.70225875 -124.59042968 324.43672281 -124.62506157 337.17128992 C-124.64187545 343.7234618 -124.64004547 350.27528396 -124.62423885 356.82745457 C-124.61845636 360.89427847 -124.62915458 364.9609351 -124.64448547 369.02772903 C-124.64822179 370.91597538 -124.64507468 372.80424948 -124.63461494 374.69247055 C-124.62130682 377.26574288 -124.6323987 379.83778861 -124.64964294 382.41101074 C-124.63983617 383.1615817 -124.63002939 383.91215266 -124.61992544 384.6854682 C-124.6678645 388.13336727 -124.90277691 390.00247087 -127.00602818 392.79059601 C-129.82360041 394.81266479 -131.63574672 394.84444834 -135.0859375 394.859375 C-136.22804688 394.86453125 -137.37015625 394.8696875 -138.546875 394.875 C-139.73539062 394.85953125 -140.92390625 394.8440625 -142.1484375 394.828125 C-143.33695312 394.84359375 -144.52546875 394.8590625 -145.75 394.875 C-146.89210938 394.86984375 -148.03421875 394.8646875 -149.2109375 394.859375 C-150.25378906 394.85486328 -151.29664063 394.85035156 -152.37109375 394.84570312 C-155.97590034 394.17392131 -156.94518381 393.24889918 -159.1484375 390.328125 C-159.53925249 387.55450512 -159.68509228 385.17860801 -159.64964294 382.4066925 C-159.65517734 381.6026425 -159.66071174 380.7985925 -159.66641384 379.97017735 C-159.68004243 377.27187872 -159.66503872 374.57450161 -159.65014648 371.8762207 C-159.65392925 369.9426433 -159.65942894 368.0090686 -159.66651917 366.07550049 C-159.68050865 360.81638449 -159.66927402 355.55759447 -159.65280795 350.29849648 C-159.63895717 344.78511057 -159.64541855 339.2717436 -159.64894104 333.75834656 C-159.65164609 324.48492187 -159.63815235 315.21162636 -159.61499023 305.93823242 C-159.58848058 295.25136945 -159.58659983 284.56472389 -159.5983786 273.87783939 C-159.60920846 263.57503274 -159.60292206 253.27230392 -159.58882332 242.9695034 C-159.58309821 238.59873784 -159.58311891 234.22802989 -159.58788872 229.85726357 C-159.59270685 224.68863947 -159.58235922 219.52024907 -159.56093407 214.35166931 C-159.55542745 212.4672849 -159.55484355 210.58287775 -159.55988693 208.69849205 C-159.62707383 179.96246692 -152.43665893 154.82416713 -131.7421875 133.89453125 C-124.16812392 126.78785451 -111.09013477 115.328125 -100.1484375 115.328125 C-100.5609375 114.68488281 -100.9734375 114.04164063 -101.3984375 113.37890625 C-103.32324749 110.36709419 -105.23623738 107.34795803 -107.1484375 104.328125 C-107.83164062 103.25949219 -108.51484375 102.19085938 -109.21875 101.08984375 C-122.9340514 79.31745464 -129.98941103 55.85266137 -124.25390625 30.1640625 C-119.10514022 12.29802633 -109.23086645 -4.17757672 -92.59765625 -13.3984375 C-91.78941406 -13.81867187 -90.98117187 -14.23890625 -90.1484375 -14.671875 C-89.45363281 -15.05085938 -88.75882812 -15.42984375 -88.04296875 -15.8203125 C-59.04173137 -30.29372552 -23.98146562 -18.60303665 0 0 Z M-98.2109375 7.203125 C-103.51828355 13.47640804 -106.86363371 20.85846109 -110.1484375 28.328125 C-110.53386719 29.18148437 -110.91929687 30.03484375 -111.31640625 30.9140625 C-117.19961883 46.6578708 -112.62437406 65.63399483 -106.1484375 80.328125 C-101.5281883 90.17668769 -95.93670515 98.80644469 -89.1484375 107.328125 C-85.74900947 111.61452586 -82.40203612 115.92963351 -79.1484375 120.328125 C-78.64699219 120.99972656 -78.14554688 121.67132813 -77.62890625 122.36328125 C-72.5395475 130.54581917 -74.40666937 142.0715033 -76.48925781 151.01489258 C-78.95599155 160.57802767 -82.40514739 169.78906846 -86.02514648 178.96875 C-92.12895925 194.55585802 -93.31782802 209.61488071 -87.3046875 225.56640625 C-82.00775124 237.32469148 -71.75065275 244.05821461 -60.00390625 248.5234375 C-34.86400561 253.77046843 -10.97838344 246.31779029 10.30859375 233.23828125 C32.76433963 218.50752505 46.7703356 195.51607407 53.1015625 169.640625 C61.71037114 124.25838687 47.44971384 79.79517067 22.24609375 42.33886719 C19.05986706 37.74472101 15.57071599 33.49614184 11.8515625 29.328125 C11.00078125 28.34585938 10.15 27.36359375 9.2734375 26.3515625 C-6.25987063 8.66528909 -26.9747077 -6.74295448 -51.1484375 -8.671875 C-68.93235993 -9.58387102 -85.40301504 -5.90439799 -98.2109375 7.203125 Z " fill="#010001" transform="translate(420.1484375,69.671875)"/>
<path d="M0 0 C29.83589413 29.42150671 47.65650655 72.53105135 48.37084961 114.25585938 C48.41191309 147.589745 39.30348167 175.2938752 15.7265625 199.31640625 C4.90769922 209.65003812 -8.02643722 216.06197405 -22 221 C-23.02480469 221.41378906 -24.04960937 221.82757813 -25.10546875 222.25390625 C-33.24525292 225.15591626 -41.10219612 225.41305728 -49.6875 225.5 C-50.82799805 225.51853027 -51.96849609 225.53706055 -53.14355469 225.55615234 C-62.38370657 225.48783577 -70.66754976 223.91418747 -78 218 C-77.42145264 217.98018066 -76.84290527 217.96036133 -76.24682617 217.93994141 C-47.39758564 216.90089802 -21.81959942 209.90559947 0 190 C0.77730469 189.30390625 1.55460937 188.6078125 2.35546875 187.890625 C21.82958646 169.52261037 32.4827369 141.54049833 33.26393127 115.09533691 C33.32667689 111.66721774 33.33144559 108.2410586 33.3125 104.8125 C33.31001251 104.08878204 33.30752502 103.36506409 33.30496216 102.61941528 C33.2443622 91.18554124 32.74271312 80.13984564 30 69 C29.77425293 68.07993164 29.54850586 67.15986328 29.31591797 66.21191406 C23.68647228 44.02079158 14.69799054 23.53296769 1.70703125 4.6484375 C0 2 0 2 0 0 Z " fill="#F14235" transform="translate(427,94)"/>
<path d="M0 0 C11.42488691 6.56930997 16.88007415 17.35725731 22 29 C22.38542969 29.85335937 22.77085937 30.70671875 23.16796875 31.5859375 C28.79175373 46.63550294 24.8801809 65.36973187 18.75 79.625 C17.86078873 81.43045023 16.94199246 83.22151823 16 85 C15.13568359 86.64742187 15.13568359 86.64742187 14.25390625 88.328125 C9.95617523 96.28074986 4.90457511 103.35305818 -0.72998047 110.40332031 C-2.85541483 113.07543502 -4.93324058 115.78238265 -7 118.5 C-7.721875 119.4384375 -8.44375 120.376875 -9.1875 121.34375 C-14.76621415 129.51945177 -13.86212481 139.3759375 -12.41796875 148.796875 C-10.29606813 158.13711334 -6.78092973 166.83081936 -3.22900391 175.70776367 C3.05383975 191.52532882 6.30667446 208.32587256 -0.04296875 224.6875 C-6.20505661 237.13786181 -15.0421862 244.17257917 -28 249 C-31.98602903 249.99993168 -35.7106054 250.10393328 -39.8125 250.0625 C-40.97394531 250.05347656 -42.13539063 250.04445313 -43.33203125 250.03515625 C-44.21246094 250.02355469 -45.09289062 250.01195312 -46 250 C-43.2017763 248.53396025 -40.41348493 247.42419403 -37.4375 246.375 C-24.39990962 241.14458026 -16.60729325 232.38087784 -11.125 219.6875 C-4.13644574 202.35495979 -8.9287724 185.1026122 -15.3046875 168.42578125 C-15.57635742 167.71502441 -15.84802734 167.00426758 -16.12792969 166.27197266 C-16.73346452 164.69439506 -17.34383955 163.11867019 -17.95800781 161.54443359 C-22.56776368 149.57320309 -27.05784413 136.93726689 -24 124 C-21.99413956 119.67382119 -19.46973997 116.22027705 -16.36474609 112.61425781 C-13.92731659 109.73120166 -11.72736621 106.67132573 -9.5 103.625 C-9.03859619 102.99964355 -8.57719238 102.37428711 -8.10180664 101.72998047 C-0.33507754 91.10986117 5.67455031 80.47258185 10 68 C10.34933594 67.14277344 10.69867188 66.28554687 11.05859375 65.40234375 C16.76733572 50.83439224 15.20567513 33.02699762 9.05761719 18.82275391 C7.40890706 15.30036802 5.64364668 11.85212716 3.8046875 8.42578125 C2.33988752 5.64519774 1.09097434 2.94113185 0 0 Z " fill="#F04235" transform="translate(180,69)"/>
<path d="M0 0 C10.73469932 1.45625766 22.16752997 8.84477362 30 16 C31.24523437 17.12535156 31.24523437 17.12535156 32.515625 18.2734375 C46.51596538 31.56118571 55.75131871 50.30276909 56.44192934 69.75399482 C56.51137769 73.97690707 56.48966349 78.19654019 56.45410156 82.41967773 C56.45297061 84.32334367 56.45361177 86.22701134 56.45587158 88.13067627 C56.45700998 93.25168208 56.43364362 98.3723061 56.40557575 103.49322391 C56.38041498 108.8623295 56.3782086 114.23144574 56.37347412 119.6006012 C56.36108721 129.74685985 56.32832405 139.89294422 56.28807616 150.03912646 C56.24322447 161.5990846 56.22133784 173.15905146 56.20129442 184.71907508 C56.15958727 208.47947967 56.08931925 232.23973003 56 256 C53.36 256 50.72 256 48 256 C47.99853344 255.02946403 47.99706688 254.05892805 47.99555588 253.0589819 C47.95888826 229.39498868 47.89934375 205.7311362 47.81609726 182.06725979 C47.77636348 170.62336951 47.74394226 159.17954743 47.72900391 147.7355957 C47.71595802 137.75585937 47.68891857 127.77627346 47.64538693 117.79662186 C47.62283813 112.51716106 47.60708536 107.23788534 47.60811615 101.95837212 C47.60886666 96.97850711 47.59075994 91.99905022 47.55883217 87.01929092 C47.55038622 85.20180819 47.54854671 83.38427939 47.55419731 81.56678581 C47.61229923 59.98665523 42.39496966 41.00467143 27 25 C18.54714238 16.89098744 8.14461684 11.47847132 -3 8 C-2.45276317 4.62537285 -1.9451 2.91765 0 0 Z " fill="#E23834" transform="translate(182,195)"/>
<path d="M0 0 C1.75 2.3125 1.75 2.3125 3 5 C2.67 5.99 2.34 6.98 2 8 C-0.3359375 9.140625 -0.3359375 9.140625 -3.375 10.25 C-21.02293433 17.27571793 -33.64093435 29.35127374 -41.6015625 46.4375 C-46.71810641 59.12413519 -47.30343544 71.06758556 -47.31884766 84.57666016 C-47.32815754 86.4500369 -47.33832777 88.32340953 -47.34928894 90.19677734 C-47.3764835 95.25799854 -47.39170697 100.31919207 -47.40471697 105.38046694 C-47.42039382 110.67891884 -47.44716945 115.97731463 -47.4727478 121.27572632 C-47.51945513 131.29809085 -47.55623811 141.32046603 -47.58942068 151.34288347 C-47.62769902 162.75768509 -47.67709417 174.17243024 -47.72740483 185.58718419 C-47.83060498 209.05808089 -47.91990402 232.52901389 -48 256 C-50.64 256 -53.28 256 -56 256 C-56.09362241 231.09502373 -56.16406681 206.19007401 -56.20724869 181.28495693 C-56.2278356 169.71994058 -56.25588197 158.15503386 -56.30175781 146.59008789 C-56.34174431 136.50495373 -56.36746092 126.41989901 -56.37635398 116.33468777 C-56.38154876 110.99927974 -56.39367714 105.66409887 -56.42292023 100.32876396 C-56.45027628 95.29645683 -56.45840457 90.26446824 -56.45243073 85.23209381 C-56.453522 83.39522375 -56.46135465 81.5583419 -56.4768219 79.72153664 C-56.59109138 65.43863548 -55.03319115 52.46110026 -48.1875 39.625 C-47.84058105 38.95710449 -47.49366211 38.28920898 -47.13623047 37.60107422 C-44.28703086 32.25508627 -41.09515836 27.48276594 -37 23 C-36.24976563 22.16984375 -35.49953125 21.3396875 -34.7265625 20.484375 C-26.65186791 11.97665263 -12.47654236 0 0 0 Z " fill="#62B2F2" transform="translate(330,195)"/>
</svg>
